PathFileType	4	(X/Y/Z)	C:\Users\dbl\Desktop\20210112\20210112\bx_n_5_502.trc
DataRate	CameraRate	NumFrames	NumMarkers	Units	OrigDataRate	OrigDataStartFrame	OrigNumFrames
50.00	50.00	       4	43	mm	50.00	367	       489
Frame#	Time	Top.Head			R.Acromium			L.Acromium			Sternum			R.ASIS			L.ASIS			V.Sacral			R.Thigh.Upper			R.Thigh.Front			R.Thigh.Rear			R.Knee.Lat			R.Knee.Med			R.Shank.Upper			R.Shank.Front			R.Shank.Rear			R.Ankle.Lat			R.Midfoot.Lat			R.Toe.Lat			R.Toe.Tip			R.Toe.Med			R.Ankle.Med			R.Midfoot.Sup			R.Heel			L.Thigh.Upper			L.Thigh.Front			L.Thigh.Rear			L.Knee.Lat			L.Knee.Med			L.Shank.Upper			L.Shank.Front			L.Shank.Rear			L.Ankle.Lat			L.Midfoot.Lat			L.Toe.Lat			L.Toe.Tip			L.Toe.Med			L.Ankle.Med			L.Midfoot.Sup			L.Heel			origin1 front left			origin2 front right			origin 3 back right			origin 4 back leftt			
		X1	Y1	Z1	X2	Y2	Z2	X3	Y3	Z3	X4	Y4	Z4	X5	Y5	Z5	X6	Y6	Z6	X7	Y7	Z7	X8	Y8	Z8	X9	Y9	Z9	X10	Y10	Z10	X11	Y11	Z11	X12	Y12	Z12	X13	Y13	Z13	X14	Y14	Z14	X15	Y15	Z15	X16	Y16	Z16	X17	Y17	Z17	X18	Y18	Z18	X19	Y19	Z19	X20	Y20	Z20	X21	Y21	Z21	X22	Y22	Z22	X23	Y23	Z23	X24	Y24	Z24	X25	Y25	Z25	X26	Y26	Z26	X27	Y27	Z27	X28	Y28	Z28	X29	Y29	Z29	X30	Y30	Z30	X31	Y31	Z31	X32	Y32	Z32	X33	Y33	Z33	X34	Y34	Z34	X35	Y35	Z35	X36	Y36	Z36	X37	Y37	Z37	X38	Y38	Z38	X39	Y39	Z39	X40	Y40	Z40	X41	Y41	Z41	X42	Y42	Z42	X43	Y43	Z43	

367	7.320	-240.37469	135.38768	1503.44434	-403.49561	-41.45953	1277.50220	-431.26184	283.67358	1267.42651	-531.00562	101.25911	1108.26636	-768.76709	-5.51705	1000.92657	-771.87579	237.64963	1023.39941	-951.14783	90.04485	1088.43457	-839.66504	-73.72311	861.92657	-752.30945	-5.80222	804.25940	-834.59015	-67.07612	745.89771	-820.10376	-40.23358	606.92413	-801.51746	69.20428	564.56860	-816.92859	-38.39561	559.31671	-757.86426	12.95314	524.59644	-836.76166	-53.71706	471.80612	-763.31085	-24.79716	202.26279	-647.71246	-67.71314	161.55635	-605.09027	-72.75189	157.10793	-549.43878	-22.54031	162.15070	-600.78705	28.91113	166.90344	-729.22607	64.54587	219.59866	-675.83630	51.53773	162.74048	-795.43640	33.32889	172.10049	-866.91479	285.67697	864.07703	-756.92761	221.79111	791.76276	-845.39136	279.59433	729.76776	-849.97461	255.79808	625.78949	-799.78015	147.60490	568.40393	-835.64185	251.70425	562.25702	-772.73621	210.13559	535.37714	-855.85303	264.14679	482.56021	-774.32440	232.14116	201.21860	-659.99652	298.72034	156.26547	-623.44556	306.66599	158.48778	-558.15143	253.65219	163.50415	-594.96783	219.22443	174.17714	-722.37378	159.35587	223.12794	-677.81464	175.88281	163.79944	-799.77252	183.84473	180.15231	-528.00781	304.24246	146.60336	-518.05334	-72.55949	143.01373	-875.87128	-78.63485	141.22467	-882.81287	295.99844	144.68349	
368	7.340	-248.93484	135.11591	1516.60535	-407.92856	-42.07981	1287.01489	-435.49030	284.28540	1276.33691	-531.80585	101.81594	1114.54163	-767.52405	-5.14851	1002.40295	-770.87634	238.12170	1025.01709	-951.00397	90.17183	1088.02002	-837.74011	-73.64157	862.51672	-750.83337	-5.52295	804.50415	-833.18036	-66.81570	746.27740	-819.14301	-40.20100	607.28638	-800.81305	69.10690	564.63367	-816.06006	-38.39566	559.53729	-757.18451	12.99777	524.64832	-836.13348	-53.92022	472.12415	-763.52246	-24.96830	202.29231	-647.74091	-67.77754	161.49541	-605.06122	-72.72708	157.13657	-549.53082	-22.49331	162.12422	-600.80908	28.88869	166.97708	-729.35657	64.33472	219.62540	-675.84344	51.55268	162.75867	-795.52686	33.16814	171.92752	-865.60303	285.66315	864.31067	-755.63306	222.12271	792.06549	-844.20190	279.72391	730.09406	-848.98920	255.83374	626.03210	-799.04889	147.73822	568.58112	-834.78754	251.76527	562.36005	-772.08636	210.36681	535.39679	-855.20557	264.22638	482.67114	-774.31348	232.19817	201.19304	-660.02924	298.72134	156.23363	-623.47638	306.67374	158.48941	-558.15247	253.68710	163.56790	-594.98193	219.32086	174.19296	-722.24506	159.38089	223.10864	-677.80560	175.88200	163.82599	-799.75720	183.81065	180.19151	-528.02295	304.27191	146.59373	-518.06433	-72.55994	143.00096	-875.87079	-78.62234	141.22336	-882.76038	296.02640	144.70459	
369	7.360	-258.05399	134.87973	1530.36353	-412.53809	-42.58172	1297.16125	-439.68622	284.81058	1285.91248	-532.63196	102.42487	1121.13318	-766.05066	-4.75360	1004.00073	-769.68384	238.59027	1026.69690	-950.60156	90.33788	1087.53406	-835.52026	-73.56059	863.17505	-749.16724	-5.15411	804.73431	-831.60229	-66.50539	746.68561	-818.07001	-40.18180	607.69153	-800.01257	69.08837	564.78143	-815.10284	-38.35835	559.74323	-756.44086	13.04409	524.70459	-835.43384	-54.06964	472.47986	-763.75122	-25.16370	202.34157	-647.78400	-67.83321	161.46407	-605.04688	-72.70869	157.17427	-549.64258	-22.44888	162.09901	-600.86304	28.85534	167.04628	-729.47546	64.14423	219.67671	-675.86151	51.56479	162.78812	-795.63904	33.00867	171.77750	-863.98138	285.65692	864.62341	-754.09283	222.44241	792.43439	-842.75403	279.84976	730.51709	-847.82104	255.87759	626.33191	-798.14789	147.92104	568.74377	-833.80902	251.88745	562.54779	-771.25397	210.62805	535.48792	-854.39972	264.32077	482.82947	-774.27057	232.26285	201.17261	-660.05725	298.72641	156.20871	-623.50482	306.67523	158.47409	-558.15460	253.72231	163.62488	-595.00110	219.41978	174.21718	-722.07489	159.43956	223.06569	-677.79608	175.89615	163.86122	-799.71735	183.75476	180.23087	-528.03674	304.28818	146.58250	-518.06500	-72.57690	143.00237	-875.86108	-78.60697	141.20340	-882.69495	296.05676	144.72507	
370	7.380	-267.71881	134.67845	1544.65674	-417.38828	-42.96616	1307.83521	-443.89532	285.23798	1296.03406	-533.48828	103.09350	1128.04565	-764.31744	-4.35112	1005.73358	-768.25702	239.02759	1028.42896	-949.85376	90.55746	1086.94702	-833.16724	-73.40276	863.84564	-747.33203	-4.73442	804.96216	-829.91345	-66.13691	747.11884	-816.88983	-40.17357	608.11292	-799.06561	69.15405	565.01147	-814.06342	-38.28626	559.97107	-755.60999	13.10164	524.76807	-834.67249	-54.11209	472.86758	-763.98206	-25.35131	202.40425	-647.84058	-67.87775	161.44875	-605.05475	-72.70640	157.22731	-549.76379	-22.41618	162.08687	-600.93817	28.80963	167.11850	-729.55695	64.00117	219.73602	-675.89294	51.55999	162.82953	-795.76099	32.85031	171.65451	-862.02557	285.69183	865.01654	-752.29138	222.74303	792.82642	-841.04077	279.95660	731.00812	-846.48212	255.96349	626.70081	-797.04572	148.16423	568.89496	-832.70978	252.06738	562.82208	-770.22406	210.88025	535.66296	-853.45007	264.41229	483.05231	-774.19385	232.33841	201.16864	-660.08734	298.73181	156.18987	-623.53644	306.67004	158.45123	-558.16083	253.75787	163.66084	-595.03796	219.53134	174.23343	-721.87823	159.52377	222.99011	-677.78534	175.92148	163.89445	-799.67358	183.66182	180.27364	-528.04523	304.28851	146.57034	-518.06543	-72.62134	143.02521	-875.84650	-78.59844	141.16734	-882.63361	296.08447	144.74332	
